<svg width="1920" height="2277" viewBox="0 0 1920 2277" fill="none" xmlns="http://www.w3.org/2000/svg">
<g filter="url(#filter0_d)">
<path d="M77.8459 660.818C362.46 890.509 644.336 1030 1113.14 873.931C1581.95 717.863 1841.62 1.99437 2161.95 439.386C2482.28 876.777 2252.25 1273.82 2154.35 1666.68C2056.46 2059.53 1918.31 1698.98 1306.93 1705.86C695.56 1712.74 545.414 2177.49 -89.3996 1795.46C-724.213 1413.44 -716.191 112.961 77.8459 660.818Z" fill="#6352B0"/>
</g>
<path fill-rule="evenodd" clip-rule="evenodd" d="M590.106 1409.77C656.137 1488.98 813.638 1496.6 827.182 1600.43C840.244 1700.57 720.619 1779.61 649.073 1861.81C577.329 1944.23 514.2 2040.52 411.221 2078.33C304.449 2117.54 188.771 2104.32 88.2492 2067.75C-10.7032 2031.75 -87.8626 1961.97 -143.112 1876.67C-198.678 1790.88 -239.553 1691.47 -223.705 1586.12C-208.162 1482.8 -133.128 1395.56 -58.5389 1314.46C14.0902 1235.49 93.1788 1152.56 197.188 1128.48C298.766 1104.96 405.527 1132.63 484.055 1188.84C552.943 1238.16 536.477 1345.44 590.106 1409.77Z" fill="white" fill-opacity="0.08"/>
<path fill-rule="evenodd" clip-rule="evenodd" d="M1194.99 1534.65C1182.7 1426.87 1072.11 1331.94 1108.85 1231.49C1144.29 1134.61 1266.33 1130.83 1354.97 1097.33C1443.87 1063.74 1532.73 1012.93 1624.24 1036.71C1719.11 1061.37 1796.92 1137.91 1853.29 1226.85C1908.78 1314.4 1933.34 1419.99 1935.09 1527.2C1936.85 1635.02 1921.88 1746.8 1863.17 1832.17C1805.59 1915.89 1712.16 1951.95 1621.8 1982.77C1533.82 2012.77 1439.39 2042.71 1353.3 2006.06C1269.22 1970.27 1204.34 1885.81 1172.7 1791.59C1144.95 1708.94 1204.97 1622.19 1194.99 1534.65Z" fill="white" fill-opacity="0.08"/>
<path d="M978.258 1756.97C985.275 1754.86 1195.62 1727.12 1320.32 1731.8C1445.02 1736.47 1578.26 1748.42 1809.26 1816.84C1990.55 1890.04 1927.57 1836.34 2029.33 1812.61C2357.55 1867.76 2058.34 1686.37 1997.19 1635.26C1936.04 1584.14 1710.33 1551.43 1471.27 1556.91C1232.21 1562.4 971.241 1759.09 978.258 1756.97Z" fill="#473C8A"/>
<path d="M708.5 940.036C720.182 937.354 898.481 644.934 1107.24 721.421C1316 797.908 1609 534.373 1796.98 293.991C1881.99 185.293 1964.46 191.68 2130.17 145.656C2594.23 -139.272 2241.33 256.35 2176.73 351.757C2112.13 447.164 1790.22 637.693 1427.79 797.907C1124 990.231 696.819 942.718 708.5 940.036Z" fill="#473C8A"/>
<defs>
<filter id="filter0_d" x="-553.616" y="293.759" width="2889.78" height="1666.24" filterUnits="userSpaceOnUse" color-interpolation-filters="sRGB">
<feFlood flood-opacity="0" result="BackgroundImageFix"/>
<feColorMatrix in="SourceAlpha" type="matrix" values="0 0 0 0 0 0 0 0 0 0 0 0 0 0 0 0 0 0 127 0"/>
<feOffset dy="4"/>
<feGaussianBlur stdDeviation="5"/>
<feColorMatrix type="matrix" values="0 0 0 0 0 0 0 0 0 0 0 0 0 0 0 0 0 0 0.1 0"/>
<feBlend mode="normal" in2="BackgroundImageFix" result="effect1_dropShadow"/>
<feBlend mode="normal" in="SourceGraphic" in2="effect1_dropShadow" result="shape"/>
</filter>
</defs>
</svg>
