<svg width="320" height="754" viewBox="0 0 320 754" fill="none" xmlns="http://www.w3.org/2000/svg">
<path fill-rule="evenodd" clip-rule="evenodd" d="M57.6813 106.98C88.9365 -5.73033 301.745 154.731 320.032 117.189C463.5 -177.335 392.162 160.393 369.64 293.391C347.216 425.803 630.935 319.533 612.936 645.786C608.437 727.346 606.332 765.497 544.927 750.17C515.478 742.82 166.923 802.522 43.9218 553.274C25.1339 515.203 -6.73423 609.454 -27.7261 572.733C-48.474 536.439 -58.2767 483.214 -61.0844 427.899C-63.7839 374.714 -83.5478 309.944 -67.9355 260.747C-53.0683 213.899 -39.5857 158.479 -14.4859 130.696C10.2411 103.326 28.8599 210.914 57.6813 106.98Z" fill="#6352B0"/>
</svg>
