<svg width="1605" height="1013" viewBox="0 0 1605 1013" fill="none" xmlns="http://www.w3.org/2000/svg">
<path fill-rule="evenodd" clip-rule="evenodd" d="M-46.1001 29.684C105.596 57.5264 591.686 144.129 709.662 179.701C1096.38 296.304 1044.73 396.499 662.849 353.41C514.89 336.715 1291.63 578.021 1522.19 806.945C1587.92 872.214 1499.76 920.015 1326.79 944.33C1244.67 955.873 299.621 1025.59 -37.7868 633.918C-87.2329 576.519 -165.787 697.118 -226.693 648.719C-286.891 600.883 -320.06 533.435 -334.811 464.304C-348.993 397.837 -410.293 314.73 -375.02 255.619C-341.431 199.33 -312.665 132.203 -249.234 100.955C-186.746 70.1717 -157.112 9.30875 -46.1001 29.684Z" fill="#6F60B6"/>
<path d="M887 863L853 832L887 801" stroke="#7B6DBB" stroke-width="10" stroke-linecap="round" stroke-linejoin="round"/>
<path d="M932 863L897 832L932 801" stroke="#7B6DBB" stroke-width="10" stroke-linecap="round" stroke-linejoin="round"/>
<path d="M790 694L824 663.5L790 633" stroke="#7B6DBB" stroke-width="10" stroke-linecap="round" stroke-linejoin="round"/>
<path d="M745 694L778 663.5L745 633" stroke="#7B6DBB" stroke-width="10" stroke-linecap="round" stroke-linejoin="round"/>
<path opacity="0.3" d="M385.357 225H368.429L357.143 246.6V279H391V246.6H374.071L385.357 225ZM340.214 225H323.286L312 246.6V279H345.857V246.6H328.929L340.214 225Z" fill="#968CC8"/>
<path opacity="0.3" d="M457.149 493.95L433.108 472.556L369 529.606V551H393.041L457.149 493.95ZM476.125 477.063C478.625 474.838 478.625 471.243 476.125 469.019L461.124 455.669C458.623 453.444 454.584 453.444 452.084 455.669L439.519 466.851L463.56 488.245L476.125 477.063Z" fill="#968CC8"/>
<path opacity="0.3" d="M312 593H499V607H312V593Z" fill="#968CC8"/>
<path opacity="0.3" d="M534.571 279H551.286L562.429 257.4V225H529V257.4H545.714L534.571 279ZM579.143 279H595.857L607 257.4V225H573.571V257.4H590.286L579.143 279Z" fill="#968CC8"/>
</svg>
