<svg width="320" height="837" viewBox="0 0 320 837" fill="none" xmlns="http://www.w3.org/2000/svg">
<path d="M262.63 160.678C226.543 144.477 135.687 167.871 69.8742 98.8644C-52.1691 -29.106 -91.8048 172.1 -106.394 282.061C-123.301 409.417 -143.975 536.461 -30.2289 645.97C83.5171 755.48 211.866 715.766 273.241 680.489C334.609 645.212 366.903 560.223 381.823 521.996C394.933 488.391 426.507 234.248 262.63 160.678Z" fill="#6352B0"/>
<path fill-rule="evenodd" clip-rule="evenodd" d="M-137.261 89.273C-125.44 70.6452 -90.5933 74.1232 -65.7 67.5277C-48.9845 63.0988 -32.9962 59.9838 -15.6385 57.049C8.72583 52.9294 32.1351 38.9464 56.3131 46.8975C81.5082 55.183 100.709 76.3338 107.062 97.3995C113.172 117.661 97.9282 135.695 88.6361 154.082C80.4527 170.275 71.0099 185.104 56.3618 197.725C38.5524 213.069 22.4354 236.866 -4.83596 234.619C-32.3814 232.349 -44.2166 203.336 -65.3482 187.697C-83.0347 174.607 -106.285 167.151 -118.397 150.574C-132.24 131.627 -148.813 107.479 -137.261 89.273Z" fill="white" fill-opacity="0.1"/>
<path fill-rule="evenodd" clip-rule="evenodd" d="M14.0975 565.152C31.8238 534.447 84.0827 540.18 121.414 529.308C146.482 522.008 170.459 516.874 196.49 512.036C233.028 505.246 268.134 482.197 304.393 495.303C342.177 508.96 370.972 543.824 380.499 578.547C389.662 611.946 366.802 641.671 352.867 671.98C340.595 698.672 326.434 723.113 304.466 743.917C277.758 769.211 253.588 808.435 212.69 804.731C171.381 800.991 153.632 753.167 121.942 727.388C95.4182 705.812 60.5511 693.522 42.3871 666.197C21.6266 634.966 -3.22793 595.163 14.0975 565.152Z" fill="white" fill-opacity="0.1"/>
</svg>
