<svg width="415" height="557" viewBox="0 0 415 557" fill="none" xmlns="http://www.w3.org/2000/svg">
<path fill-rule="evenodd" clip-rule="evenodd" d="M185.251 1.91184C256.456 -8.70813 306.658 62.635 367.356 97.6376C408.113 121.142 444.031 145.594 481.803 172.926C534.822 211.291 613.182 230.529 632.867 289.764C653.38 351.491 628.434 424.614 581.703 473.536C536.755 520.592 461.309 523.759 395.094 538.688C336.78 551.836 280.042 560.227 220.421 554.994C147.932 548.632 55.2276 560.294 14.6401 505.296C-26.3554 449.745 32.718 376.589 39.2814 309.542C44.7748 253.425 25.3263 196.797 49.9118 144.983C78.0115 85.7637 115.657 12.2916 185.251 1.91184Z" fill="white" fill-opacity="0.1"/>
</svg>
