<svg width="1062" height="794" viewBox="0 0 1062 794" fill="none" xmlns="http://www.w3.org/2000/svg">
<path fill-rule="evenodd" clip-rule="evenodd" d="M774.694 25.702C854.244 112.996 1044.89 120.658 1060.77 235.452C1076.09 346.16 930.881 434.183 843.86 525.466C756.598 617.001 679.698 723.823 554.84 766.162C425.383 810.061 285.403 796.006 163.885 756.046C44.2651 716.709 -48.8052 639.887 -115.274 545.798C-182.123 451.168 -231.121 341.407 -211.416 224.785C-192.091 110.409 -100.823 13.5341 -10.1219 -76.5499C78.1947 -164.266 174.351 -256.393 300.388 -283.541C423.48 -310.053 552.594 -279.976 647.388 -218.171C730.546 -163.953 710.083 -45.1977 774.694 25.702Z" fill="white" fill-opacity="0.08"/>
</svg>
